<svg viewBox="0 0 32 32" fill="none" xmlns="http://www.w3.org/2000/svg">
  <path
    d="M27.4962 22.8205C27.081 23.7715 26.5681 24.6782 25.9654 25.5267C25.1602 26.6567 24.499 27.4374 23.9923 27.872C23.2051 28.5821 22.3595 28.9474 21.4554 28.9681C20.8076 28.9681 20.025 28.7869 19.1134 28.4186C18.1988 28.0518 17.3592 27.872 16.59 27.872C15.7848 27.872 14.9212 28.0518 13.9961 28.4186C13.0725 28.7869 12.3259 28.9798 11.7546 28.9975C10.8895 29.0344 10.0244 28.6602 9.16224 27.872C8.61198 27.4006 7.92378 26.5904 7.09764 25.4442C6.21303 24.223 5.48585 22.8014 4.9161 21.1853C4.30587 19.4367 4 17.7455 4 16.1073C4 14.232 4.41232 12.613 5.23846 11.2577C5.86331 10.1932 6.75662 9.30488 7.83232 8.67814C8.89306 8.05303 10.104 7.71644 11.3408 7.70291C12.0305 7.70291 12.9346 7.9121 14.0546 8.32458C15.1746 8.73707 15.8943 8.94626 16.2077 8.94626C16.4446 8.94626 17.2407 8.70024 18.5961 8.21262C19.8751 7.76036 20.9546 7.57327 21.8392 7.64693C24.2381 7.83697 26.0389 8.76506 27.2368 10.4386C25.0928 11.7158 24.0327 13.5028 24.0537 15.7965C24.0717 17.5834 24.7329 19.0699 26.0284 20.2499C26.6011 20.7884 27.2693 21.2192 28 21.5212C27.8411 21.9735 27.6731 22.4051 27.4962 22.8205V22.8205ZM21.9981 1.56128C21.9981 2.96078 21.4764 4.26896 20.4403 5.47843C19.1869 6.91624 17.6725 7.74858 16.0307 7.61746C16.0093 7.44148 15.9987 7.26437 15.9993 7.08712C15.9993 5.74212 16.593 4.30431 17.653 3.12725C18.1808 2.53209 18.8525 2.03564 19.6666 1.64083C20.4793 1.25191 21.247 1.03683 21.9696 1C21.9891 1.18857 21.9981 1.37566 21.9981 1.56128V1.56128Z"
    fill="currentColor"
  />
</svg>
