<svg viewBox="0 0 32 32" fill="none" xmlns="http://www.w3.org/2000/svg">
  <path
    d="M21.6799 12L7.53326 4.18668C7.1174 3.95046 6.6677 3.77958 6.19992 3.68001C5.82142 3.63644 5.43957 3.72601 5.11992 3.93335M21.6799 12L17.7666 16M21.6799 12L26.3466 14.58C28.0066 15.5 28.0066 16.4733 26.3466 17.3933L21.6799 19.9733M21.6799 12V11.9733L17.7666 15.9733M17.7666 16L5.11992 3.93335M17.7666 16L5.13326 28.0467M5.11992 3.93335L17.7866 16L5.13326 28.0467M5.11992 3.93335L5.08659 3.94001C4.65992 4.31335 4.41992 5.08001 4.41992 6.19335V25.8067C4.41992 26.92 4.66659 27.6733 5.13326 28.0467M5.13326 28.0467C5.74659 28.6067 6.78659 28.24 7.55992 27.8133L21.6799 20"
    stroke="currentColor"
    stroke-width="2"
    stroke-linecap="round"
    stroke-linejoin="round"
  />
  <path
    d="M6.3936 26.341L16.5825 16.5524C16.9922 16.1588 16.9921 15.5033 16.5822 15.1099L6.6687 5.59317C6.03799 4.98772 4.98875 5.42612 4.97628 6.30031L4.7009 25.6056C4.68824 26.4936 5.75315 26.9563 6.3936 26.341Z"
    fill="currentColor"
    stroke="currentColor"
  />
</svg>
