<?xml version="1.0" standalone="no"?>
<!DOCTYPE svg PUBLIC "-//W3C//DTD SVG 20010904//EN"
 "http://www.w3.org/TR/2001/REC-SVG-20010904/DTD/svg10.dtd">
<svg version="1.0" xmlns="http://www.w3.org/2000/svg"
 width="5000.000000pt" height="4000.000000pt" viewBox="0 0 5000.000000 4000.000000"
 preserveAspectRatio="xMidYMid meet">

<g transform="translate(0.000000,4000.000000) scale(0.100000,-0.100000)"
fill="#000000" stroke="none">
<path d="M17305 33812 c-2 -2 -180 -4 -397 -6 -216 -1 -398 -4 -403 -8 -6 -3
-59 -6 -120 -6 -60 0 -240 -5 -400 -11 -159 -6 -407 -16 -550 -21 -353 -13
-377 -14 -725 -14 -323 -1 -690 5 -702 11 -4 2 -87 6 -185 9 -98 3 -209 10
-248 14 -92 12 -768 0 -860 -15 -16 -2 -57 -7 -90 -10 -33 -3 -73 -8 -90 -10
-16 -2 -73 -8 -125 -15 -52 -6 -124 -19 -160 -30 -36 -10 -87 -23 -115 -28
-27 -6 -75 -18 -105 -27 -30 -8 -72 -17 -92 -17 -21 -1 -38 -5 -38 -8 0 -3
-17 -6 -38 -8 -53 -3 -160 -41 -171 -59 -4 -8 -21 -17 -36 -18 -27 -4 -63 -15
-123 -42 -18 -8 -49 -17 -68 -20 -18 -3 -34 -9 -34 -13 0 -4 -11 -11 -25 -14
-14 -4 -25 -11 -25 -16 0 -5 -19 -14 -42 -21 -23 -6 -89 -34 -146 -62 -58 -28
-111 -50 -118 -50 -8 0 -14 -4 -14 -9 0 -4 -3 -7 -7 -6 -24 5 -61 -17 -77 -46
-18 -33 -77 -73 -94 -62 -5 3 -16 -1 -23 -10 -8 -9 -35 -31 -61 -49 -26 -17
-45 -35 -40 -40 4 -5 2 -5 -4 -2 -6 4 -34 -16 -62 -43 -28 -28 -57 -50 -63
-50 -17 0 -158 -150 -173 -185 -7 -16 -30 -48 -50 -70 -35 -37 -72 -95 -62
-95 3 0 -9 -29 -25 -65 -17 -35 -27 -70 -23 -76 4 -7 3 -9 -3 -6 -7 4 -19 -12
-30 -38 -10 -25 -22 -45 -26 -45 -5 0 -5 -4 -2 -10 3 -5 3 -16 -2 -22 -4 -7
-8 -15 -9 -18 0 -3 -5 -23 -11 -45 -36 -132 -53 -236 -58 -345 -4 -69 -11
-129 -16 -135 -13 -13 -11 -45 2 -45 8 0 9 -29 4 -99 -4 -54 -3 -101 2 -104 5
-3 10 -54 11 -114 1 -59 8 -146 16 -192 7 -48 10 -99 6 -117 -5 -21 -3 -39 5
-51 7 -10 11 -27 9 -37 -1 -11 2 -28 8 -39 6 -11 12 -41 15 -66 2 -25 12 -82
23 -126 10 -44 21 -97 25 -117 3 -21 10 -38 15 -38 6 0 10 -16 10 -36 0 -39
41 -180 66 -227 8 -15 12 -32 9 -37 -3 -6 -2 -10 4 -10 9 0 19 -22 26 -59 2
-9 4 -17 5 -18 2 -2 3 -6 4 -10 2 -11 118 -242 163 -323 19 -36 44 -82 54
-102 10 -20 23 -40 29 -43 6 -4 20 -25 32 -48 11 -23 37 -67 56 -97 20 -30 35
-58 34 -61 -1 -4 17 -28 39 -53 23 -25 42 -52 43 -60 1 -7 9 -21 19 -30 9 -10
17 -22 17 -28 0 -6 17 -26 38 -46 20 -20 28 -29 18 -21 -24 17 -20 10 28 -61
17 -25 31 -48 31 -51 0 -3 14 -19 30 -36 17 -16 37 -43 45 -59 8 -16 31 -47
51 -70 40 -44 69 -91 50 -79 -6 3 1 -14 17 -38 15 -25 48 -88 72 -141 23 -53
45 -94 47 -92 3 2 -3 18 -12 36 -9 18 -15 34 -12 36 8 9 39 -75 32 -87 -5 -7
-4 -10 2 -6 6 4 32 -49 62 -128 29 -73 66 -154 82 -179 16 -25 27 -46 24 -46
-2 0 18 -42 45 -94 27 -52 56 -118 64 -147 9 -28 21 -58 27 -65 6 -8 8 -14 5
-14 -4 0 -1 -7 8 -15 8 -8 24 -40 35 -70 11 -30 34 -81 49 -113 16 -31 35 -75
42 -97 7 -22 21 -51 30 -65 10 -14 21 -36 25 -50 4 -14 24 -63 45 -110 50
-111 64 -143 62 -152 -1 -5 2 -8 7 -8 7 0 81 -150 81 -165 0 -6 72 -175 117
-275 109 -239 179 -390 222 -478 66 -133 82 -172 75 -183 -3 -5 0 -9 6 -9 6 0
8 -4 5 -10 -3 -5 -1 -10 5 -10 6 0 8 -4 5 -10 -3 -5 -1 -10 6 -10 7 0 10 -3 6
-6 -3 -4 10 -37 29 -75 19 -38 44 -93 55 -122 24 -60 150 -330 158 -337 3 -3
7 -14 9 -25 3 -18 51 -124 203 -444 32 -68 56 -128 52 -134 -3 -5 -1 -7 4 -4
6 4 14 0 17 -9 3 -8 2 -12 -4 -9 -6 3 -7 -1 -4 -9 3 -9 9 -14 13 -11 8 4 41
-57 46 -85 2 -8 46 -97 100 -198 53 -101 139 -272 192 -380 53 -108 179 -366
281 -572 101 -206 206 -424 232 -485 26 -60 60 -135 75 -164 15 -30 42 -89 60
-130 18 -42 60 -140 94 -219 33 -78 61 -144 61 -146 0 -2 15 -37 34 -78 80
-175 99 -220 99 -233 0 -8 4 -15 9 -15 4 0 7 -3 6 -7 -5 -20 15 -73 24 -67 7
4 8 2 4 -5 -8 -13 122 -315 316 -734 70 -153 125 -284 121 -290 -3 -7 -3 -9 2
-5 11 10 107 -191 98 -205 -3 -5 -2 -7 4 -4 10 6 99 -178 97 -200 -1 -7 3 -10
9 -6 6 4 8 0 4 -11 -4 -9 -3 -15 2 -12 9 6 67 -111 64 -132 0 -7 1 -11 5 -8 6
7 363 -712 365 -736 1 -9 4 -15 8 -13 8 5 65 -115 63 -132 -1 -7 1 -11 5 -9 4
3 25 -32 48 -77 147 -293 213 -433 208 -445 -3 -8 0 -10 7 -6 8 5 9 2 5 -10
-5 -11 -3 -15 5 -10 8 5 9 2 5 -10 -5 -11 -3 -15 5 -10 8 5 9 2 5 -10 -4 -9
-3 -15 2 -12 11 7 33 -43 25 -56 -4 -6 -3 -8 3 -5 13 8 47 -68 38 -84 -6 -8
-4 -10 5 -4 10 6 12 4 7 -9 -5 -11 -3 -15 5 -10 8 5 9 2 5 -10 -5 -11 -3 -15
5 -10 8 5 9 2 5 -10 -4 -9 -3 -15 1 -12 13 8 76 -129 67 -144 -5 -8 -4 -11 2
-7 6 4 15 -5 22 -19 6 -14 7 -23 2 -20 -5 3 -7 -3 -4 -14 3 -11 9 -23 14 -26
5 -3 6 3 3 13 -5 15 -4 16 5 3 6 -8 8 -23 5 -33 -3 -10 1 -19 10 -23 9 -3 13
-10 11 -15 -6 -10 43 -112 56 -117 5 -2 7 -7 4 -12 -2 -4 8 -34 25 -66 37 -76
201 -417 270 -561 29 -62 57 -113 62 -113 5 0 7 -4 3 -9 -7 -12 56 -142 66
-135 10 6 20 -26 12 -38 -4 -7 -1 -8 7 -3 10 6 12 4 7 -9 -5 -11 -3 -15 5 -10
8 5 9 2 5 -10 -5 -11 -3 -15 5 -10 8 5 9 2 5 -10 -4 -9 -3 -15 2 -12 5 3 16
-11 24 -32 27 -68 129 -273 142 -286 7 -7 25 -37 40 -67 15 -30 41 -73 57 -97
16 -23 39 -65 50 -92 11 -28 25 -50 30 -50 5 0 6 -4 3 -10 -3 -5 -2 -10 3 -10
9 0 53 -71 134 -218 16 -29 34 -50 39 -47 5 4 6 -1 3 -9 -3 -8 3 -23 14 -34
11 -11 23 -29 26 -39 6 -19 85 -145 106 -170 6 -7 8 -13 5 -13 -3 0 4 -9 14
-19 11 -11 28 -40 40 -65 11 -25 25 -46 31 -46 6 0 16 -12 22 -27 7 -16 42
-73 78 -128 65 -99 105 -173 102 -187 -1 -5 3 -8 8 -8 6 0 24 -22 41 -50 17
-27 35 -50 40 -50 6 0 8 -4 5 -9 -4 -5 -3 -11 1 -13 7 -2 56 -98 55 -105 0 -1
15 -18 34 -38 19 -20 31 -41 28 -47 -4 -6 -3 -8 3 -5 6 4 23 -17 38 -46 16
-29 42 -72 58 -96 17 -25 44 -72 60 -105 28 -60 85 -156 98 -166 3 -3 16 -25
29 -50 12 -25 28 -52 36 -60 7 -8 50 -89 95 -180 45 -91 102 -197 126 -237 26
-41 41 -77 37 -84 -5 -8 -3 -9 6 -4 10 6 12 4 7 -9 -5 -11 -3 -15 5 -10 8 5 9
2 5 -10 -4 -9 -3 -15 1 -12 4 2 61 -102 126 -232 118 -238 203 -394 218 -400
5 -2 6 -8 2 -13 -3 -5 0 -9 6 -9 6 0 8 -5 5 -10 -3 -5 -1 -10 5 -10 6 0 8 -5
5 -10 -3 -6 -1 -10 6 -10 7 0 10 -3 6 -6 -7 -7 61 -147 74 -152 5 -2 7 -8 3
-13 -3 -5 0 -9 6 -9 6 0 8 -4 5 -10 -3 -5 -1 -10 5 -10 6 0 8 -4 5 -10 -3 -5
-1 -10 5 -10 6 0 8 -4 5 -10 -3 -5 -1 -10 5 -10 6 0 8 -5 5 -10 -3 -6 -1 -10
5 -10 6 0 8 -4 5 -10 -3 -5 -1 -10 5 -10 6 0 8 -4 5 -10 -3 -5 -1 -10 5 -10 6
0 8 -4 5 -10 -3 -5 -1 -10 5 -10 6 0 8 -4 5 -10 -3 -5 -1 -10 5 -10 6 0 8 -4
5 -10 -3 -5 -1 -10 6 -10 7 0 10 -3 6 -6 -7 -8 31 -86 47 -96 6 -4 8 -8 3 -8
-7 0 134 -284 252 -505 32 -60 100 -193 152 -295 51 -102 111 -216 132 -255
22 -38 84 -158 139 -265 56 -107 131 -251 168 -320 38 -69 70 -134 72 -145 1
-11 7 -23 11 -26 13 -10 157 -292 159 -311 1 -10 5 -18 9 -18 4 0 61 -100 127
-222 65 -123 130 -243 144 -268 120 -218 191 -354 191 -366 0 -8 4 -14 9 -14
5 0 6 -4 3 -10 -3 -5 -2 -10 4 -10 5 0 34 -46 64 -102 31 -57 71 -130 91 -162
20 -33 34 -62 31 -64 -3 -3 3 -11 13 -19 11 -10 12 -12 2 -8 -8 4 -5 -2 6 -12
22 -18 60 -83 49 -83 -3 0 6 -11 21 -25 15 -14 24 -25 20 -25 -3 0 0 -13 8
-29 9 -16 12 -31 9 -35 -4 -3 -1 -6 6 -6 7 0 10 -4 7 -9 -3 -5 1 -11 9 -15 8
-3 12 -11 10 -18 -3 -8 4 -24 15 -36 11 -12 18 -22 15 -22 -4 0 11 -17 32 -37
21 -20 31 -33 23 -29 -8 4 -6 0 4 -8 11 -9 17 -16 13 -16 -4 0 2 -19 14 -42
12 -24 21 -45 20 -46 -1 -2 5 -9 13 -15 9 -7 18 -22 21 -35 2 -12 10 -29 18
-37 19 -19 137 -221 137 -234 0 -6 4 -11 10 -11 5 0 16 -16 25 -35 9 -19 23
-39 31 -46 8 -6 14 -16 14 -22 0 -5 11 -25 25 -43 14 -18 30 -43 35 -56 6 -13
21 -37 33 -55 12 -17 45 -68 72 -113 28 -45 87 -138 133 -207 46 -69 90 -139
99 -156 8 -17 24 -39 34 -50 10 -12 19 -26 19 -32 0 -6 15 -31 33 -55 17 -25
31 -46 29 -47 -5 -6 99 -153 109 -153 6 0 7 -5 4 -10 -3 -6 9 -24 27 -41 18
-18 26 -28 18 -25 -8 4 -6 0 4 -8 11 -9 16 -16 10 -16 -5 0 2 -10 16 -21 14
-11 18 -18 10 -14 -8 4 -6 -2 5 -12 12 -10 27 -27 35 -37 13 -18 13 -19 0 -12
-8 4 -4 -2 10 -13 14 -11 21 -21 15 -21 -5 0 -2 -5 8 -11 9 -6 15 -14 12 -20
-4 -5 -2 -9 4 -9 6 0 28 -26 50 -59 22 -32 55 -73 73 -92 18 -18 26 -29 18
-25 -8 4 -4 -2 10 -14 14 -12 18 -18 10 -14 -8 5 2 -12 23 -37 20 -26 37 -51
37 -58 0 -6 3 -11 8 -11 4 0 22 -22 40 -50 18 -27 37 -50 41 -50 5 0 11 -10
15 -22 6 -24 100 -150 107 -144 2 2 15 -11 29 -28 13 -17 17 -25 7 -17 -10 8
-17 9 -17 3 0 -6 9 -13 20 -17 19 -6 105 -107 105 -124 0 -16 125 -141 150
-151 16 -6 23 -14 19 -22 -4 -6 -3 -8 3 -5 6 4 30 -11 54 -34 60 -55 125 -107
116 -91 -5 6 -5 12 -2 12 3 0 11 -13 16 -29 6 -17 36 -51 67 -78 31 -26 50
-38 42 -27 -8 11 -3 7 11 -9 15 -15 33 -29 40 -30 8 -2 20 -6 27 -10 6 -5 17
-5 22 -2 6 3 10 1 10 -5 0 -6 6 -10 13 -9 6 1 19 1 27 0 12 -1 12 -3 2 -9 -9
-6 3 -17 37 -35 27 -15 55 -27 63 -27 9 0 41 -13 73 -29 33 -17 62 -28 66 -25
4 2 9 1 11 -4 4 -9 108 -42 135 -42 11 0 40 -7 64 -16 24 -8 60 -16 79 -16 19
0 37 -4 40 -9 3 -4 21 -8 40 -8 72 1 166 7 180 12 21 7 130 20 158 18 13 0 21
3 18 7 -3 5 7 7 22 4 34 -4 85 14 77 28 -4 6 -3 10 2 8 4 -1 26 4 47 10 22 6
43 9 49 5 5 -3 12 -1 16 4 3 5 35 22 71 37 36 16 72 34 80 40 8 6 36 22 62 35
28 14 45 28 41 35 -3 6 -3 8 2 4 10 -10 53 14 93 51 19 17 38 29 43 26 5 -4
13 4 18 17 5 13 17 30 27 38 16 13 15 12 -2 -15 l-19 -30 41 32 c37 29 205
205 310 323 109 122 341 459 309 446 -9 -3 -13 -2 -10 4 3 6 14 10 23 10 15 0
15 2 2 10 -13 9 -7 14 13 11 4 0 8 3 8 9 4 29 30 81 39 75 3 -2 15 13 25 33
11 20 30 50 42 65 13 16 26 41 30 55 3 15 12 36 20 48 7 11 10 24 6 29 -5 4
-3 5 4 1 8 -4 15 3 19 21 4 15 12 35 19 43 6 8 22 35 34 60 12 25 28 57 36 73
36 67 45 85 66 130 12 26 26 47 31 47 6 0 8 7 4 15 -3 8 -1 15 4 15 5 0 7 10
5 22 -3 12 -1 25 3 28 11 7 112 183 112 194 0 4 9 19 20 33 11 14 20 36 20 48
0 12 7 28 15 35 8 7 13 15 11 19 -4 6 5 25 52 110 12 22 19 41 16 41 -4 0 0 8
8 18 22 25 143 265 142 279 -1 7 3 13 8 13 9 0 83 148 90 180 2 8 6 17 9 20 3
3 30 50 59 105 29 55 69 126 88 159 19 32 48 86 64 119 17 34 41 74 54 90 13
16 27 41 30 55 4 15 15 36 24 47 21 24 38 71 21 61 -20 -13 -11 0 25 38 23 24
34 44 31 55 -3 11 5 29 19 44 12 14 20 28 17 31 -4 3 -1 6 6 6 7 0 10 4 7 8
-3 5 1 19 8 33 38 74 95 186 101 199 3 8 14 31 25 50 10 20 14 37 8 39 -5 2 0
10 11 18 25 17 54 70 46 82 -3 5 1 15 8 23 7 7 27 40 44 73 17 33 58 113 92
177 33 65 61 122 61 126 0 5 22 49 48 98 27 49 52 101 56 117 3 15 11 27 17
27 6 0 7 5 4 10 -3 6 -1 10 5 10 6 0 8 5 5 10 -3 6 -2 10 4 10 6 0 8 6 6 13
-3 6 22 62 56 122 68 120 129 245 133 268 2 13 39 85 92 176 102 177 147 268
138 282 -3 5 -1 9 3 9 10 0 70 108 75 135 1 11 8 25 13 32 6 7 15 18 21 25 6
8 10 24 9 36 -1 13 4 26 10 30 7 4 31 43 53 87 22 44 82 155 134 245 119 208
123 214 109 206 -19 -12 -12 2 14 29 14 14 23 25 19 25 -5 0 0 6 11 13 10 8
15 19 11 25 -8 13 28 75 38 65 4 -4 4 1 0 11 -6 15 -4 17 6 11 8 -5 11 -4 7 2
-3 5 12 43 34 84 21 41 48 94 60 117 11 24 29 52 40 63 10 10 19 25 19 33 0 7
11 29 23 48 20 29 33 62 39 95 0 5 9 14 19 21 11 7 19 23 19 34 0 12 6 29 14
37 8 9 42 70 76 136 34 66 70 127 81 135 11 9 24 33 30 55 6 22 20 46 30 53
11 7 19 19 19 26 0 8 16 40 35 72 19 31 33 59 31 61 -2 2 5 14 16 26 11 12 47
74 80 137 33 63 65 118 72 122 6 4 7 8 2 8 -6 0 -1 7 10 16 10 8 12 13 4 9 -8
-4 -4 3 10 15 14 12 18 19 10 15 -8 -4 -6 1 4 9 11 9 16 16 12 16 -4 0 1 12
12 28 18 25 102 205 102 217 0 3 22 38 49 78 26 40 85 147 131 240 46 92 87
167 92 167 5 0 6 5 3 10 -3 6 -1 10 5 10 6 0 8 4 5 10 -3 6 -2 10 2 10 5 0 14
12 20 28 6 15 21 43 32 62 11 19 76 152 146 295 143 294 156 320 195 391 16
29 26 55 23 58 -4 3 -1 6 6 6 7 0 9 5 6 10 -3 6 -2 10 3 10 5 0 26 39 47 88
50 116 105 226 116 230 5 2 7 8 3 13 -3 5 0 9 6 9 6 0 8 5 5 10 -3 6 -1 10 5
10 6 0 8 5 5 10 -3 6 -1 10 5 10 6 0 8 5 5 10 -3 6 -2 10 3 10 5 0 22 28 37
63 57 127 126 262 140 273 8 6 12 14 8 17 -3 4 -1 7 5 7 7 0 11 3 10 8 -3 15
15 62 24 62 5 0 6 5 3 10 -3 6 -1 10 5 10 6 0 8 5 5 10 -3 6 -2 10 2 10 5 0 9
9 10 21 1 12 18 48 37 81 20 33 36 61 36 64 0 4 169 354 407 844 42 85 81 171
88 191 7 20 50 111 94 202 45 90 81 169 81 174 0 6 9 20 20 33 11 13 20 33 20
45 0 11 11 36 25 55 14 19 25 42 25 52 0 10 5 18 11 18 5 0 7 5 4 10 -3 6 -2
10 4 10 5 0 13 10 17 23 4 12 37 87 75 167 37 80 70 159 73 175 3 15 9 31 14
34 12 8 33 48 37 73 3 12 9 24 13 27 16 10 39 65 37 84 -2 9 1 17 7 17 6 0 7
7 4 16 -3 8 -2 13 3 10 11 -7 23 22 15 35 -3 5 0 9 6 9 6 0 8 5 5 10 -3 6 -1
10 5 10 6 0 8 5 5 10 -3 6 -1 10 5 10 6 0 8 5 5 10 -3 6 -2 10 3 10 10 0 65
116 65 137 0 7 4 13 9 13 5 0 7 4 4 9 -10 15 5 41 23 41 14 0 14 2 1 10 -11 7
-11 10 -2 10 7 0 10 5 7 10 -3 6 -1 10 4 10 6 0 10 3 9 8 -3 12 13 52 21 52 4
0 7 9 8 20 1 11 54 126 118 255 63 130 113 241 109 247 -5 7 -2 8 6 3 10 -6
12 -4 7 8 -3 10 -2 17 4 17 6 0 7 5 4 10 -3 5 -1 10 5 10 6 0 8 5 5 10 -3 6
-2 10 3 10 13 0 43 70 36 82 -5 7 -2 8 6 3 9 -6 10 -2 5 15 -5 15 -4 20 4 16
6 -4 9 -1 5 7 -3 8 2 21 10 30 8 8 12 17 9 21 -4 3 -1 6 6 6 7 0 9 5 6 10 -3
6 -2 10 3 10 5 0 15 19 23 43 17 53 158 365 159 352 1 -5 8 2 16 18 8 15 12
33 8 39 -5 7 -3 8 6 3 10 -6 12 -4 7 9 -4 10 2 34 13 55 10 21 16 41 13 45 -4
3 -1 6 6 6 7 0 10 4 7 9 -3 5 1 12 10 15 9 4 14 13 10 21 -3 8 -2 15 2 15 13
0 43 70 36 82 -5 7 -2 8 6 3 10 -6 12 -4 7 9 -4 9 -3 15 1 12 13 -8 42 61 35
80 -5 13 -3 15 7 9 8 -5 11 -4 6 3 -8 13 44 123 56 116 4 -3 5 3 1 12 -5 13
-3 15 7 9 9 -5 11 -4 6 3 -4 7 30 87 75 179 128 261 189 395 183 405 -3 4 0 8
6 8 6 0 8 5 5 10 -3 6 -1 10 5 10 12 0 41 61 34 72 -3 5 0 8 7 8 7 0 10 3 7 6
-4 3 2 14 13 25 10 10 19 28 19 39 0 29 22 70 33 63 6 -4 8 0 4 10 -3 10 -2
17 3 17 6 0 9 3 8 8 -4 11 23 72 32 72 3 0 7 6 7 13 0 7 34 82 76 166 43 84
74 157 71 163 -5 7 -2 8 6 3 8 -5 11 -3 8 5 -2 8 4 22 15 33 10 10 16 25 13
33 -3 8 0 14 6 14 6 0 9 3 5 6 -3 3 -2 11 4 18 15 17 233 448 318 629 33 69
56 105 63 101 7 -4 8 -3 4 4 -7 12 56 152 82 185 9 9 12 17 8 17 -4 0 0 7 8
16 9 8 16 24 16 33 0 10 7 24 15 31 8 7 13 16 10 20 -3 4 2 11 11 14 8 3 14
11 13 18 -5 23 12 58 32 69 12 6 18 17 15 27 -6 20 125 278 140 275 5 -1 10 9
10 21 2 21 93 191 94 173 0 -4 -7 -21 -15 -37 -9 -17 -13 -30 -11 -30 10 0 37
61 31 70 -9 15 34 92 47 84 7 -4 8 -3 4 4 -4 6 19 60 51 119 31 59 80 153 107
208 28 55 59 109 68 119 10 11 21 29 24 40 10 35 61 134 83 162 12 15 21 36
21 48 0 12 10 32 23 46 12 14 24 36 25 50 2 14 15 36 28 51 13 14 24 33 24 43
0 10 4 14 12 10 7 -4 8 -3 4 5 -4 6 2 24 13 40 12 16 21 36 21 44 0 8 11 31
25 51 14 20 25 41 25 47 0 6 5 7 12 3 7 -4 8 -3 4 4 -7 12 19 59 42 77 7 6 14
17 15 25 2 9 13 32 26 53 20 32 27 51 30 79 1 4 7 13 14 20 7 7 28 41 46 75
19 35 37 60 42 57 5 -3 6 2 3 10 -7 18 14 59 26 51 6 -4 7 1 3 11 -4 12 -3 15
5 10 8 -5 10 -1 5 10 -5 13 -3 15 7 9 9 -5 11 -4 6 4 -11 17 4 53 19 47 10 -3
12 0 8 11 -4 10 -2 14 4 10 5 -4 15 5 22 19 14 31 14 47 1 39 -6 -3 -7 1 -3
10 4 12 8 13 13 5 4 -7 15 3 27 27 11 21 37 72 58 113 21 41 62 116 90 165 29
50 63 113 76 140 12 28 33 67 46 88 13 21 21 43 17 49 -4 6 -3 8 3 5 9 -6 25
30 22 49 0 4 4 10 9 13 12 8 112 182 112 196 0 6 14 25 30 44 17 18 28 37 25
42 -4 5 -2 9 4 9 6 0 35 52 66 116 30 63 74 147 97 187 23 40 42 77 43 83 0
11 29 55 52 79 7 7 9 15 6 19 -4 3 -1 6 6 6 7 0 10 4 7 9 -3 5 1 12 10 15 9 4
14 13 10 22 -3 8 -2 13 2 10 11 -6 45 51 37 63 -3 5 0 13 6 17 8 5 9 3 4 -6
-5 -9 -4 -11 4 -6 6 4 9 11 6 16 -3 5 12 38 34 74 22 36 55 94 72 128 17 35
34 65 38 68 3 3 7 11 9 19 1 7 15 26 30 41 15 15 56 83 91 151 64 124 145 259
156 259 4 0 3 -6 -1 -12 -6 -10 -4 -10 8 0 9 7 19 24 22 37 3 13 18 36 31 51
14 15 23 33 21 41 -3 7 0 16 7 20 19 12 57 69 57 85 0 8 9 23 19 32 11 10 52
74 92 142 39 69 76 127 80 130 5 3 9 14 9 25 0 10 5 19 11 19 5 0 8 4 5 9 -3
5 1 12 10 15 8 3 13 10 10 15 -4 5 -2 11 2 13 17 6 63 89 56 100 -4 6 -3 8 2
5 21 -13 393 660 379 684 -4 5 -1 9 5 9 6 0 8 5 5 10 -3 6 -1 10 6 10 7 0 9 3
6 7 -4 3 2 20 12 37 48 79 76 140 116 256 76 219 97 285 100 310 1 8 7 26 15
40 14 27 19 55 24 140 2 30 8 69 14 85 6 17 14 78 17 138 4 59 11 107 15 107
5 0 9 19 9 43 1 23 2 56 4 74 2 17 -1 29 -6 26 -5 -3 -7 17 -6 44 1 27 -1 55
-5 61 -4 7 -5 41 -1 75 5 47 3 73 -9 100 -8 20 -13 37 -10 37 3 0 0 9 -6 20
-6 10 -11 51 -12 89 -1 48 -6 72 -15 75 -7 3 -13 20 -13 38 0 53 -10 78 -32
78 -10 0 -16 5 -13 10 3 6 1 10 -5 10 -7 0 -9 8 -5 21 5 16 4 19 -6 14 -9 -6
-11 -3 -6 9 4 9 -1 32 -10 49 -9 18 -16 40 -14 51 2 11 -2 16 -8 12 -6 -4 -9
-1 -5 7 3 8 -2 17 -11 21 -9 3 -13 10 -10 16 3 5 1 10 -5 10 -6 0 -8 4 -5 10
3 5 1 18 -4 27 -6 10 -11 14 -11 9 0 -10 -40 38 -40 49 0 3 5 3 10 0 6 -3 10
-2 10 2 0 11 -37 43 -43 37 -2 -3 -10 9 -17 26 -7 16 -17 30 -22 30 -5 0 -6 5
-3 10 3 6 0 10 -7 10 -7 0 -25 21 -40 46 -17 28 -32 42 -40 38 -6 -4 -8 -3 -5
3 8 13 -140 166 -152 159 -5 -3 -15 2 -22 12 -12 15 -12 16 2 7 8 -5 2 1 -15
15 -16 14 -44 39 -61 56 -28 28 -62 49 -77 46 -3 -1 -9 5 -12 14 -4 10 -2 13
7 8 9 -6 9 -5 0 7 -7 8 -28 21 -48 29 -19 7 -35 18 -35 22 0 5 -4 7 -9 4 -5
-3 -14 1 -21 9 -7 8 -17 12 -24 8 -6 -3 -8 -3 -5 1 12 13 -35 52 -81 66 -25 7
-57 22 -72 32 -14 10 -34 18 -43 18 -9 0 -14 4 -11 9 7 10 -37 31 -67 31 -12
0 -33 12 -46 25 -13 14 -30 25 -38 25 -8 0 -21 6 -29 14 -8 8 -47 25 -87 37
-123 37 -277 101 -271 111 4 6 -2 7 -16 3 -17 -5 -21 -4 -15 5 5 8 4 11 -2 7
-5 -3 -60 14 -123 39 -62 25 -125 46 -141 46 -16 1 -29 5 -29 9 0 5 -6 6 -14
3 -14 -5 -125 20 -154 36 -38 19 -142 42 -165 36 -13 -3 -49 1 -79 9 -30 7
-78 17 -106 21 -29 3 -52 10 -52 15 0 4 -29 6 -65 3 -40 -2 -65 0 -65 6 0 6
-15 8 -38 4 -34 -5 -98 4 -315 47 -26 5 -60 8 -75 8 l-27 -1 30 -8 c28 -7 28
-8 5 -9 -14 0 -41 4 -60 10 -19 5 -109 12 -200 14 -164 4 -424 21 -468 31 -16
3 -21 1 -17 -7 6 -8 -4 -10 -36 -6 -183 24 -1923 43 -2399 27 -113 -4 -266 -4
-340 -1 -74 4 -139 4 -145 1 -17 -11 -2145 3 -2163 14 -4 2 -196 7 -427 11
-231 3 -425 10 -430 15 -6 5 -69 9 -140 8 -72 0 -330 7 -575 16 -245 8 -539
15 -654 16 -114 0 -211 2 -215 4 -16 10 -1292 20 -2101 17 -1668 -7 -2466 -4
-2880 10 -223 8 -493 14 -600 15 -398 2 -1536 14 -1875 20 -383 7 -1355 11
-1360 6z m17168 -229 c-7 -2 -21 -2 -30 0 -10 3 -4 5 12 5 17 0 24 -2 18 -5z
m-18123 -1007 c927 -4 1897 -11 2155 -15 259 -5 927 -9 1485 -10 558 0 1123
-3 1255 -6 376 -8 1170 -15 2280 -20 561 -2 1146 -7 1300 -9 154 -3 737 -8
1295 -11 1675 -9 2601 -16 2860 -21 135 -3 839 -9 1565 -14 726 -5 1559 -12
1850 -15 292 -3 850 -8 1240 -10 1733 -13 2231 -24 2445 -56 169 -25 307 -98
397 -207 51 -63 56 -75 85 -182 45 -166 2 -409 -122 -690 -35 -81 -394 -794
-580 -1155 -31 -60 -138 -270 -238 -465 -99 -195 -217 -427 -263 -515 -231
-451 -327 -639 -484 -950 -94 -187 -258 -511 -365 -720 -106 -209 -237 -465
-290 -570 -321 -630 -444 -871 -517 -1012 -45 -87 -135 -264 -200 -393 -281
-558 -756 -1496 -763 -1505 -4 -5 -72 -138 -150 -295 -79 -157 -153 -301 -165
-320 -12 -20 -75 -141 -139 -270 -128 -255 -168 -336 -409 -810 -88 -173 -193
-382 -234 -465 -41 -82 -89 -179 -108 -215 -19 -36 -127 -252 -241 -480 -114
-228 -210 -417 -214 -420 -3 -3 -72 -138 -153 -300 -81 -162 -166 -331 -189
-376 -24 -44 -67 -133 -97 -197 -30 -64 -58 -117 -62 -117 -5 0 -8 -3 -7 -7 4
-15 -13 -53 -23 -53 -6 0 -7 -4 -4 -10 3 -5 1 -10 -5 -10 -6 0 -8 -4 -5 -10 3
-5 1 -10 -5 -10 -6 0 -8 -4 -5 -10 3 -5 1 -10 -4 -10 -6 0 -11 -8 -11 -18 0
-11 -9 -29 -20 -42 -11 -13 -20 -27 -20 -32 0 -17 -3 -24 -20 -48 -10 -14 -42
-74 -72 -135 -137 -275 -591 -1169 -599 -1179 -5 -6 -151 -292 -323 -636 -489
-975 -565 -1124 -575 -1136 -5 -7 -7 -15 -4 -18 4 -3 1 -6 -6 -6 -7 0 -9 -4
-6 -10 3 -5 1 -10 -5 -10 -6 0 -8 -5 -5 -10 3 -6 1 -10 -5 -10 -6 0 -8 -4 -5
-10 3 -5 1 -10 -5 -10 -6 0 -9 -4 -6 -9 4 -5 2 -11 -2 -13 -5 -1 -110 -203
-234 -448 -124 -245 -274 -539 -333 -655 -59 -115 -167 -327 -240 -470 -189
-370 -311 -608 -360 -700 -78 -147 -186 -357 -345 -670 -352 -696 -421 -830
-428 -840 -4 -6 -23 -42 -42 -80 -19 -39 -37 -72 -41 -75 -4 -3 -59 -110 -123
-238 -63 -129 -119 -239 -124 -245 -10 -12 -186 -363 -232 -459 -12 -27 -26
-50 -31 -54 -5 -3 -9 -12 -9 -21 0 -9 -6 -24 -14 -32 -7 -9 -94 -176 -192
-371 -99 -195 -181 -357 -184 -360 -6 -6 -43 -77 -211 -405 -70 -137 -198
-387 -285 -555 -86 -168 -195 -381 -241 -475 -46 -93 -87 -172 -91 -175 -4 -3
-60 -111 -125 -240 -103 -207 -192 -379 -386 -745 -29 -54 -65 -119 -82 -143
-16 -23 -29 -45 -29 -48 0 -7 -39 -60 -110 -148 -138 -174 -340 -248 -530
-195 -188 52 -393 206 -516 389 -60 90 -95 152 -209 375 -48 94 -100 193 -115
220 -15 28 -73 140 -130 250 -56 110 -117 227 -135 260 -38 69 -116 218 -258
495 -238 465 -280 546 -287 555 -4 6 -78 150 -165 320 -87 171 -161 315 -165
320 -4 6 -86 165 -183 355 -96 190 -187 368 -202 395 -38 71 -217 419 -355
690 -65 127 -159 311 -210 410 -51 99 -144 279 -205 400 -188 368 -226 440
-236 450 -5 5 -9 17 -9 26 0 10 -7 25 -16 33 -8 9 -12 16 -7 16 4 0 3 4 -3 8
-6 4 -73 129 -149 277 -305 596 -380 744 -544 1070 -95 187 -178 346 -185 355
-8 8 -19 31 -25 50 -6 20 -32 72 -57 115 -25 44 -79 145 -119 225 -40 80 -121
237 -180 350 -59 113 -155 297 -213 410 -58 113 -186 360 -285 550 -99 190
-209 401 -244 470 -36 69 -99 190 -141 270 -156 294 -261 500 -254 500 4 0 2
4 -3 8 -6 4 -35 57 -64 117 -30 61 -57 112 -61 115 -4 3 -42 75 -84 160 -43
85 -82 160 -86 165 -4 6 -74 143 -156 305 -81 162 -152 297 -156 298 -5 2 -6
7 -3 12 3 5 -2 15 -10 24 -9 8 -15 17 -14 18 5 8 -14 48 -22 48 -6 0 -8 4 -4
9 3 5 -1 16 -9 24 -8 8 -12 17 -9 21 4 3 1 6 -6 6 -7 0 -10 4 -6 9 3 5 -2 17
-11 25 -8 9 -13 16 -10 16 3 0 -16 37 -43 83 -26 45 -100 186 -163 312 -143
285 -404 800 -508 1000 -255 494 -463 898 -561 1095 -49 96 -172 337 -274 535
-101 198 -248 486 -326 640 -78 154 -152 298 -165 320 -22 38 -41 75 -102 205
-14 30 -39 78 -55 105 -17 28 -98 183 -180 345 -82 162 -186 365 -230 450 -44
85 -122 238 -174 340 -212 416 -488 954 -553 1075 -22 41 -37 75 -32 75 4 0 2
4 -4 8 -6 4 -45 77 -88 162 -42 85 -127 254 -189 375 -62 121 -237 468 -391
770 -153 303 -293 577 -311 610 -42 77 -560 1097 -798 1570 -49 99 -93 182
-97 185 -11 8 -60 103 -60 117 0 7 -5 13 -12 13 -6 0 -8 3 -5 7 4 3 -2 20 -12
37 -10 17 -51 96 -91 176 -41 80 -76 147 -79 150 -3 3 -21 37 -39 75 -19 39
-38 77 -43 85 -5 8 -16 31 -25 50 -14 32 -184 378 -326 665 -30 61 -78 166
-107 235 -29 69 -57 132 -61 140 -4 9 -17 52 -28 95 -18 73 -24 115 -37 257
-2 26 2 73 10 105 7 32 16 78 19 103 12 86 144 276 220 320 23 12 72 43 111
69 171 113 351 159 650 168 94 3 171 7 173 8 5 4 1917 0 4042 -9z m9100
-25175 c-5 -11 -15 -23 -21 -27 -6 -3 -3 5 6 20 20 30 30 35 15 7z m-2790
-386 c13 -14 21 -25 18 -25 -2 0 -15 11 -28 25 -13 14 -21 25 -18 25 2 0 15
-11 28 -25z"/>
<path d="M12831 31599 c-57 -4 -122 -12 -145 -18 -179 -52 -195 -60 -255 -136
-16 -22 -35 -215 -20 -215 3 0 10 -26 16 -58 6 -31 29 -98 52 -149 23 -50 41
-96 41 -102 0 -11 43 -95 220 -436 37 -71 125 -240 195 -375 70 -135 137 -261
149 -280 11 -19 19 -36 18 -38 -2 -1 17 -39 41 -85 65 -119 186 -355 367 -709
156 -308 275 -538 320 -623 46 -85 103 -195 248 -475 49 -96 118 -229 152
-295 34 -66 98 -192 142 -280 102 -206 115 -231 150 -283 15 -24 28 -48 28
-54 0 -16 220 -442 232 -449 5 -3 10 -10 10 -15 1 -15 22 -58 35 -72 7 -7 13
-20 13 -29 0 -12 65 -139 105 -204 6 -9 49 -93 96 -185 48 -93 106 -205 131
-250 25 -44 69 -130 99 -190 30 -60 57 -110 62 -112 4 -2 7 -12 7 -22 0 -10 7
-25 15 -34 9 -8 15 -17 15 -18 -3 -8 33 -83 46 -95 8 -8 15 -19 15 -24 3 -19
6 -25 38 -89 19 -36 37 -67 42 -68 5 -2 7 -8 3 -13 -3 -5 0 -9 5 -9 6 0 10 -3
9 -7 -4 -15 13 -53 23 -53 6 0 8 -4 5 -8 -3 -5 8 -28 25 -53 16 -24 29 -49 29
-56 0 -6 3 -13 8 -15 4 -1 58 -106 121 -233 63 -126 120 -237 127 -245 6 -8
66 -123 133 -255 67 -132 127 -242 132 -246 6 -3 10 -8 8 -10 -4 -8 12 -49 20
-49 4 0 8 -6 8 -13 0 -12 72 -166 83 -177 9 -9 50 -97 50 -107 0 -6 7 -16 15
-23 8 -7 13 -16 10 -20 -2 -3 3 -18 13 -31 9 -13 44 -78 78 -144 33 -66 75
-145 92 -175 17 -30 28 -58 26 -62 -3 -4 0 -8 6 -8 6 0 8 -4 5 -10 -3 -5 -2
-10 4 -10 10 0 27 -38 23 -52 -1 -5 3 -8 9 -8 5 0 7 -4 4 -10 -3 -5 -2 -10 4
-10 10 0 27 -38 23 -52 -1 -5 3 -8 9 -8 5 0 8 -3 5 -8 -2 -4 9 -26 25 -50 16
-23 29 -49 29 -57 0 -7 6 -20 13 -27 7 -7 46 -78 86 -158 107 -211 183 -354
194 -361 5 -3 8 -8 6 -10 -5 -9 13 -49 22 -49 5 0 9 -9 9 -19 0 -11 6 -26 13
-33 12 -13 52 -87 52 -97 1 -14 258 -515 276 -537 5 -6 6 -14 2 -17 -3 -4 -1
-7 5 -7 6 0 14 -10 17 -22 7 -25 37 -90 45 -98 3 -3 29 -52 58 -110 28 -58
105 -208 170 -335 65 -126 151 -295 192 -375 41 -80 82 -156 92 -169 10 -13
18 -32 18 -42 0 -9 4 -19 8 -21 4 -1 56 -100 115 -218 125 -253 219 -433 235
-453 7 -8 9 -17 5 -20 -3 -4 -1 -7 5 -7 10 0 28 -38 24 -52 -1 -5 2 -8 7 -8 8
0 22 -28 26 -50 0 -3 7 -16 14 -29 45 -82 79 -151 73 -151 -4 0 -2 -4 5 -8 6
-4 41 -68 77 -142 36 -74 73 -144 81 -155 8 -10 15 -27 15 -37 0 -10 4 -18 8
-18 5 0 33 -51 62 -112 29 -62 61 -125 71 -139 10 -14 16 -29 12 -33 -3 -3 -2
-6 4 -6 10 0 26 -36 24 -52 -1 -5 3 -8 9 -8 5 0 9 -3 8 -7 -1 -5 5 -19 14 -33
9 -14 18 -32 20 -40 2 -8 5 -17 8 -20 3 -3 23 -42 45 -87 22 -46 43 -83 48
-83 4 0 5 -4 2 -10 -3 -5 -1 -10 5 -10 7 0 10 -6 7 -14 -3 -7 -2 -17 3 -22 14
-15 60 -106 60 -120 0 -7 6 -19 14 -27 8 -7 42 -70 76 -138 34 -68 66 -126 71
-127 5 -2 7 -8 3 -13 -3 -5 0 -9 6 -9 6 0 9 -4 5 -9 -3 -5 2 -17 11 -25 8 -9
13 -16 9 -16 -4 0 1 -7 10 -16 9 -9 13 -24 10 -32 -3 -9 -3 -13 1 -10 7 8 146
-258 147 -279 0 -7 3 -13 7 -13 3 0 60 -107 125 -237 66 -131 123 -239 128
-241 4 -2 7 -10 7 -17 0 -8 17 -47 39 -87 21 -40 126 -246 233 -458 228 -449
335 -657 428 -830 106 -196 143 -272 143 -286 0 -8 3 -12 5 -9 3 3 17 -21 31
-53 14 -31 29 -61 34 -67 8 -10 71 -134 270 -530 61 -121 113 -222 117 -225 4
-3 35 -61 70 -130 34 -69 68 -128 74 -132 6 -4 8 -8 3 -8 -7 0 50 -120 62
-130 3 -3 7 -14 9 -25 2 -11 10 -25 18 -31 8 -7 17 -22 19 -34 2 -13 11 -30
20 -40 8 -9 15 -24 15 -33 0 -9 4 -17 9 -17 10 0 27 -39 23 -52 -1 -5 3 -8 9
-8 5 0 7 -4 4 -10 -3 -5 -1 -10 5 -10 6 0 8 -4 5 -10 -3 -5 -1 -10 5 -10 6 0
8 -4 5 -10 -3 -5 -1 -10 5 -10 6 0 8 -4 5 -10 -3 -5 -1 -10 5 -10 6 0 8 -4 5
-10 -3 -5 -1 -10 5 -10 6 0 8 -4 5 -10 -3 -5 -1 -10 5 -10 6 0 8 -4 5 -10 -3
-6 -1 -10 5 -10 6 0 8 -4 5 -10 -3 -5 -1 -10 5 -10 6 0 8 -4 5 -10 -3 -5 -1
-10 5 -10 6 0 8 -4 5 -10 -3 -5 -1 -10 5 -10 6 0 8 -4 5 -10 -3 -5 -1 -10 5
-10 6 0 8 -4 5 -10 -3 -5 -2 -10 3 -10 5 0 20 -25 32 -55 12 -30 26 -55 30
-55 4 0 11 -12 15 -27 9 -39 77 -173 87 -173 5 0 7 -4 3 -9 -3 -5 0 -15 7 -23
19 -19 58 -93 58 -109 0 -7 7 -20 14 -28 8 -9 58 -100 110 -201 152 -296 175
-338 186 -345 5 -3 10 -14 10 -23 0 -10 52 -121 115 -247 64 -127 134 -270
156 -318 22 -49 44 -94 50 -100 8 -10 479 -945 703 -1397 32 -63 78 -155 103
-205 140 -277 184 -366 213 -425 40 -82 163 -309 203 -375 16 -27 37 -63 47
-80 19 -34 61 -94 105 -151 120 -155 235 -183 329 -80 41 45 106 119 114 131
38 53 142 223 142 231 0 3 12 23 27 47 15 23 172 330 349 682 176 352 328 654
337 670 18 32 158 314 189 380 11 22 33 65 49 95 17 30 92 181 168 335 453
918 589 1187 605 1197 6 4 8 8 3 8 -10 0 22 62 37 72 6 4 8 8 3 8 -9 0 65 148
109 218 19 28 34 54 33 57 0 3 29 63 64 133 35 70 72 143 81 162 10 19 22 44
28 55 15 26 415 816 620 1224 87 173 165 322 173 331 8 9 12 20 8 23 -3 4 -1
7 6 7 7 0 9 5 6 10 -3 6 -1 10 5 10 6 0 8 5 5 10 -3 6 -1 10 6 10 7 0 9 3 6 6
-8 9 142 304 155 304 5 0 7 3 4 8 -2 4 24 61 58 127 34 66 104 201 155 300 52
99 105 203 118 230 13 28 40 82 59 120 20 39 110 217 200 398 91 180 170 327
175 327 6 0 7 5 4 10 -3 5 -1 10 5 10 6 0 8 5 5 10 -3 6 -1 10 5 10 6 0 9 4 5
9 -3 5 2 17 11 25 8 9 13 16 9 16 -8 0 26 64 39 72 6 4 8 8 3 8 -7 0 10 35
105 210 22 41 87 170 145 285 58 116 111 213 117 217 6 4 8 8 3 8 -7 0 31 77
92 187 16 28 26 54 23 57 -3 3 0 6 6 6 7 0 12 8 12 19 0 10 18 46 40 79 22 33
40 67 40 75 0 9 6 22 13 29 8 7 78 141 157 298 453 898 523 1034 548 1063 8 9
12 17 8 17 -3 0 0 13 9 30 8 16 15 32 15 35 -1 7 31 69 39 75 3 3 14 21 23 40
10 19 22 43 28 53 23 39 31 54 57 107 15 30 28 57 28 60 4 22 18 50 26 50 6 0
7 5 4 10 -3 6 -1 10 4 10 6 0 10 3 10 8 -3 17 2 31 14 44 7 7 48 83 91 168 43
85 115 225 160 310 115 220 158 303 295 575 67 132 152 299 189 370 38 72 115
220 171 330 57 110 106 205 111 210 4 6 63 120 131 255 67 135 129 252 136
262 8 9 15 23 17 31 1 8 7 21 13 28 5 8 82 154 169 324 87 171 169 330 182
355 89 168 206 395 233 450 17 36 37 76 45 90 8 14 55 106 105 205 93 183 143
280 308 600 173 333 248 479 391 760 150 294 268 523 330 640 20 39 60 117 89
175 96 194 277 545 291 565 7 10 48 90 143 280 30 61 85 169 124 240 38 72 77
148 86 170 10 22 22 47 27 55 5 8 26 49 47 90 21 41 40 77 43 80 3 3 27 48 53
100 27 52 87 169 133 260 84 162 233 452 412 800 49 96 106 206 127 244 110
205 729 1434 744 1478 7 20 25 63 40 95 39 80 80 203 88 260 8 66 10 127 3
133 -3 3 -10 19 -16 35 -6 17 -16 29 -22 28 -7 -2 -11 2 -9 9 2 13 -39 38 -65
38 -10 0 -18 4 -18 8 0 5 -6 9 -12 9 -7 0 -58 8 -113 18 -82 14 -185 18 -580
21 -264 2 -887 9 -1385 14 -696 8 -4077 14 -4380 8 -30 -1 -548 3 -1150 8
-1487 12 -2224 11 -2325 -5 -44 -7 -95 -12 -112 -13 -18 0 -33 -4 -33 -8 0 -5
-19 -7 -42 -6 -24 1 -54 -4 -68 -11 -23 -12 -23 -13 -4 -13 12 0 21 -6 21 -15
0 -8 -5 -15 -10 -15 -6 0 -7 -3 -4 -6 4 -4 13 -2 20 5 11 8 19 6 37 -9 12 -11
31 -22 41 -25 11 -4 19 -11 19 -17 0 -6 3 -9 6 -5 4 3 12 1 20 -6 7 -7 30 -25
51 -42 54 -43 163 -157 163 -172 0 -6 4 -13 9 -15 5 -1 28 -41 51 -88 24 -47
46 -87 49 -90 6 -5 25 -37 46 -78 38 -70 141 -130 256 -148 30 -4 446 -9 924
-10 3652 -7 4970 -14 5070 -30 55 -9 114 -22 130 -29 17 -7 47 -19 68 -26 20
-7 37 -16 37 -20 0 -4 9 -11 21 -14 40 -13 84 -50 127 -105 74 -95 93 -131
113 -208 31 -121 21 -220 -34 -343 -67 -151 -233 -274 -430 -316 -76 -17 -183
-18 -1517 -21 -789 -1 -1464 -3 -1500 -4 -36 -1 -123 -1 -195 0 -71 2 -164 -2
-205 -7 -41 -5 -292 -10 -557 -10 -266 0 -646 -5 -845 -10 -200 -6 -509 -13
-688 -16 -179 -3 -336 -8 -350 -10 -14 -2 -54 -7 -90 -11 -142 -14 -233 -65
-273 -154 -44 -101 -49 -233 -42 -1317 3 -538 9 -1169 15 -1403 5 -234 12
-632 15 -885 3 -253 8 -590 12 -750 11 -530 16 -1703 7 -1805 -28 -328 -143
-517 -389 -640 -43 -22 -84 -40 -91 -40 -6 0 -17 -7 -24 -15 -7 -8 -21 -15
-31 -15 -11 0 -19 -4 -19 -10 0 -5 -3 -9 -7 -9 -22 4 -43 -2 -38 -10 3 -5 -4
-12 -15 -16 -25 -8 -26 -30 -2 -44 15 -9 15 -12 2 -21 -12 -9 -10 -10 7 -5 18
5 22 3 17 -9 -4 -10 -1 -16 8 -16 7 0 21 -8 29 -17 24 -26 80 -68 188 -141
439 -295 757 -621 1005 -1030 148 -245 232 -465 271 -712 24 -146 13 -323 -26
-424 -50 -130 -134 -242 -238 -319 -31 -23 -60 -45 -66 -49 -5 -4 -39 -27 -73
-49 -35 -23 -67 -51 -71 -62 -8 -22 27 -99 41 -91 5 3 8 -2 8 -11 0 -9 4 -14
9 -11 5 4 11 3 13 -2 1 -4 35 -33 73 -64 81 -63 113 -99 170 -183 22 -33 43
-62 46 -65 4 -3 10 -16 14 -30 4 -14 11 -27 14 -30 21 -16 61 -262 54 -334 -1
-17 -5 -60 -7 -96 -5 -69 -14 -139 -23 -180 -3 -14 -9 -47 -14 -75 -20 -121
-38 -191 -72 -275 -37 -92 -49 -125 -46 -125 9 0 -183 -330 -201 -345 -3 -3
-28 -34 -55 -70 -56 -74 -176 -203 -251 -270 -118 -105 -278 -231 -350 -276
-18 -11 -72 -56 -120 -100 l-86 -79 5 -49 c5 -57 13 -65 157 -175 45 -34 97
-94 157 -180 31 -44 84 -161 135 -299 28 -78 60 -116 91 -109 41 8 51 12 70
27 42 34 156 201 228 336 33 62 304 597 844 1669 180 358 331 655 335 660 22
29 605 1192 801 1595 57 118 183 373 280 565 590 1174 1253 2501 1308 2616 74
158 536 1082 776 1554 219 431 655 1296 935 1855 123 245 227 447 232 448 4 2
8 9 8 16 0 18 24 66 33 66 4 0 7 9 7 20 0 11 4 20 9 20 5 0 11 13 14 29 3 16
13 36 22 44 8 9 15 23 15 31 0 9 5 16 10 16 6 0 10 8 10 18 0 10 4 22 9 28 16
16 629 1233 843 1674 382 783 538 1084 617 1189 87 115 213 206 329 236 75 20
214 18 277 -3 80 -27 178 -87 226 -139 58 -62 114 -171 135 -262 15 -70 16
-208 1 -271 -4 -14 -10 -38 -13 -55 -4 -16 -24 -72 -45 -124 -22 -53 -39 -101
-39 -108 0 -7 -4 -13 -10 -13 -5 0 -10 -8 -10 -17 0 -10 -25 -65 -54 -123
-113 -222 -501 -999 -771 -1545 -155 -313 -408 -824 -562 -1135 -569 -1147
-997 -2010 -1515 -3060 -129 -261 -325 -657 -435 -880 -111 -223 -215 -436
-232 -474 -45 -100 -523 -1065 -1157 -2336 -303 -608 -634 -1274 -736 -1480
-102 -206 -369 -744 -593 -1195 -225 -451 -408 -826 -408 -832 0 -7 -4 -13 -9
-13 -5 0 -6 -4 -3 -10 3 -5 1 -10 -5 -10 -6 0 -8 -4 -5 -10 3 -5 1 -10 -5 -10
-6 0 -9 -4 -6 -9 4 -5 2 -11 -3 -13 -13 -5 -71 -125 -64 -132 4 -3 1 -6 -6 -6
-7 0 -10 -4 -7 -9 4 -5 2 -11 -3 -13 -12 -4 -193 -368 -183 -368 4 0 2 -4 -4
-8 -16 -10 -74 -128 -67 -136 4 -3 1 -6 -6 -6 -7 0 -9 -4 -6 -10 3 -5 1 -10
-6 -10 -7 0 -10 -3 -6 -6 3 -4 -1 -13 -9 -21 -8 -8 -12 -19 -9 -24 4 -5 1 -9
-5 -9 -6 0 -8 -4 -5 -10 3 -5 1 -10 -5 -10 -6 0 -8 -4 -5 -10 3 -5 1 -10 -5
-10 -6 0 -8 -4 -5 -10 3 -5 1 -10 -5 -10 -6 0 -8 -4 -5 -10 3 -5 1 -10 -5 -10
-6 0 -8 -4 -5 -10 3 -5 1 -10 -5 -10 -6 0 -8 -4 -5 -10 3 -5 1 -10 -5 -10 -6
0 -8 -4 -5 -10 3 -5 1 -10 -5 -10 -6 0 -8 -4 -5 -10 3 -6 1 -10 -5 -10 -6 0
-8 -4 -5 -10 3 -5 1 -10 -5 -10 -6 0 -8 -4 -5 -10 3 -5 1 -10 -5 -10 -6 0 -8
-4 -5 -10 3 -5 1 -10 -5 -10 -6 0 -9 -4 -5 -9 3 -5 -1 -16 -9 -24 -8 -8 -12
-17 -9 -21 4 -3 1 -6 -6 -6 -7 0 -10 -4 -6 -9 3 -5 -1 -16 -9 -24 -8 -8 -12
-17 -9 -21 4 -3 1 -6 -6 -6 -7 0 -9 -4 -6 -10 3 -5 1 -10 -5 -10 -6 0 -8 -4
-5 -10 3 -5 1 -10 -5 -10 -6 0 -8 -4 -5 -10 3 -5 1 -10 -5 -10 -6 0 -8 -4 -5
-10 3 -5 1 -10 -5 -10 -6 0 -8 -4 -5 -10 3 -5 1 -10 -5 -10 -6 0 -8 -5 -5 -10
3 -6 1 -10 -5 -10 -6 0 -8 -4 -5 -10 3 -5 1 -10 -5 -10 -6 0 -8 -5 -5 -10 3
-6 1 -10 -5 -10 -6 0 -8 -4 -5 -10 3 -5 1 -10 -5 -10 -6 0 -8 -5 -5 -10 3 -6
2 -10 -4 -10 -10 0 -27 -38 -23 -52 1 -5 -3 -8 -9 -8 -5 0 -7 -4 -4 -10 3 -6
1 -10 -6 -10 -7 0 -10 -3 -6 -6 3 -4 -1 -13 -9 -21 -8 -8 -12 -19 -9 -24 4 -5
1 -9 -5 -9 -6 0 -8 -5 -5 -10 3 -5 2 -10 -4 -10 -6 0 -15 -18 -21 -40 -6 -21
-15 -42 -20 -45 -7 -5 -629 -1245 -739 -1475 -17 -36 -37 -76 -45 -90 -7 -14
-64 -128 -125 -255 -98 -200 -147 -292 -209 -395 -9 -14 -15 -27 -14 -30 0 -3
-8 -14 -18 -25 -10 -11 -25 -36 -33 -55 -15 -38 -73 -111 -152 -196 -27 -29
-61 -64 -74 -78 -13 -14 -29 -26 -37 -26 -8 0 -14 -3 -14 -7 0 -8 -73 -48
-140 -77 -94 -40 -273 -38 -381 4 -85 34 -198 122 -231 181 -12 21 -25 39 -29
39 -13 0 -57 104 -75 175 -3 11 -9 56 -14 100 -27 235 -27 254 -6 1155 3 151
9 415 12 585 3 171 8 330 10 355 2 25 6 167 9 315 7 368 15 635 21 725 6 94
41 283 61 330 55 132 71 223 45 249 -34 34 -67 43 -157 42 -89 -1 -214 -8
-270 -16 -88 -13 -425 -16 -550 -6 -77 6 -205 15 -285 21 -240 17 -284 20
-289 25 -2 3 -10 0 -18 -6 -9 -8 -13 -8 -13 -1 0 6 -10 9 -22 7 -46 -9 -274
62 -298 94 -3 3 -32 19 -65 35 -33 15 -82 43 -110 61 -27 18 -86 52 -130 75
-171 93 -371 233 -535 376 -101 87 -250 239 -278 283 -9 14 -20 29 -25 32 -5
3 -16 17 -25 31 -9 14 -40 59 -68 99 -137 198 -226 425 -280 709 -2 14 -7 39
-11 55 -8 38 -9 51 -27 216 -16 144 -9 224 28 350 24 80 100 198 203 318 21
24 49 64 62 90 22 43 23 50 12 102 -6 31 -34 99 -62 150 -88 162 -101 197
-120 325 -20 136 22 472 85 674 64 204 118 328 211 485 25 42 45 79 45 81 0 7
156 220 192 261 53 62 263 265 312 303 26 19 53 40 60 47 39 35 227 148 344
206 72 37 132 65 132 62 0 -2 24 7 53 19 112 50 221 70 377 71 226 0 352 -34
540 -145 187 -111 200 -113 309 -45 9 6 41 35 71 65 151 150 262 208 510 263
274 62 305 72 283 98 -6 8 -12 17 -12 22 0 8 -5 15 -90 132 -75 103 -115 171
-141 240 -4 11 -15 38 -24 60 -47 119 -63 334 -71 929 -4 258 -8 510 -10 560
-2 50 -6 262 -10 471 -3 209 -7 511 -10 670 -2 160 -7 610 -10 1000 -3 391 -9
919 -14 1175 -5 256 -10 524 -11 595 -1 72 -3 213 -5 315 -9 473 -25 1591 -26
1820 -1 222 2 268 20 357 19 89 72 239 90 253 3 3 13 19 21 35 21 41 161 182
194 195 18 6 25 14 20 22 -4 7 -3 10 1 5 5 -4 19 0 32 8 13 9 28 13 33 10 6
-3 10 -1 10 4 0 6 6 11 14 11 8 0 18 4 21 10 3 6 -1 7 -9 4 -9 -3 -16 -4 -16
0 0 3 15 10 33 15 25 7 27 9 10 10 -13 1 -23 6 -23 12 0 5 6 7 13 3 6 -4 2 3
-9 16 -12 12 -38 24 -60 26 -22 3 -70 10 -109 15 -38 6 -97 14 -130 19 -122
16 -1199 19 -1485 4 -186 -9 -546 -10 -695 -1 -152 10 -933 18 -2020 22 -599
3 -1205 7 -1345 9 -235 4 -1411 11 -3947 21 -546 2 -1039 6 -1095 10 -175 9
-787 26 -862 23 -39 -1 -118 -5 -175 -9z m9830 -304 c8 -5 10 -4 5 3 -9 15 17
16 42 3 9 -6 44 -18 77 -27 33 -10 72 -26 87 -36 14 -10 29 -18 33 -18 9 0 95
-70 122 -100 51 -56 156 -230 138 -230 -2 0 3 -21 11 -47 26 -86 42 -167 53
-268 7 -55 14 -118 16 -140 10 -78 13 -132 19 -330 4 -110 8 -245 11 -300 3
-55 6 -752 7 -1550 1 -797 5 -1582 9 -1745 6 -243 17 -890 23 -1320 4 -281 5
-1990 1 -2020 -3 -19 -7 -51 -9 -70 -11 -77 -75 -243 -106 -270 -3 -3 -18 -24
-33 -47 -35 -51 -128 -139 -156 -148 -12 -3 -21 -11 -21 -17 0 -6 -3 -9 -6 -5
-4 3 -30 -6 -58 -20 -41 -21 -69 -27 -148 -31 -53 -2 -105 -1 -115 3 -10 5
-28 10 -41 12 -110 18 -280 149 -343 263 -8 14 -17 27 -20 30 -6 6 -43 101
-58 150 -22 72 -39 271 -41 454 0 104 -4 194 -7 199 -3 5 -9 894 -14 1975 -13
2826 -20 3500 -39 3607 -13 70 -24 105 -52 160 -32 61 -45 72 -117 99 -84 31
-211 46 -431 52 -96 3 -245 9 -330 15 -85 6 -479 12 -875 14 -396 3 -742 7
-770 10 -60 6 -615 22 -1070 30 -181 4 -336 8 -344 11 -8 2 -291 3 -630 2
-1022 -5 -1463 -3 -1531 5 -36 4 -82 10 -103 13 -21 2 -68 16 -105 30 -37 13
-74 26 -83 29 -9 2 -44 22 -78 46 -56 38 -84 65 -148 142 -27 32 -77 131 -88
172 -12 50 -6 226 11 285 23 82 79 174 143 238 55 56 176 131 236 147 17 4 35
9 40 11 6 2 20 5 33 8 13 3 31 7 40 10 74 23 273 26 942 14 863 -14 811 -13
1305 -16 220 -1 618 -7 885 -12 2199 -43 2763 -47 2882 -16 89 23 160 63 198
111 17 22 36 47 43 55 7 8 22 31 34 50 12 20 32 47 44 60 11 14 27 37 35 52 8
15 23 32 34 38 11 6 19 14 17 18 -1 4 3 9 8 11 6 2 19 13 30 25 41 44 102 82
174 106 71 24 155 31 182 15z m-8566 -530 c76 -18 182 -66 221 -100 120 -107
216 -226 288 -359 13 -22 48 -86 78 -141 108 -193 139 -252 283 -540 80 -159
145 -295 145 -301 0 -7 4 -14 8 -16 5 -1 62 -106 126 -233 65 -126 122 -237
126 -245 5 -8 30 -58 56 -110 26 -52 84 -167 129 -255 46 -88 148 -288 228
-445 80 -157 197 -386 261 -510 63 -124 150 -295 193 -380 43 -85 81 -157 84
-160 3 -3 87 -165 186 -360 99 -195 221 -434 270 -530 49 -96 121 -236 158
-310 38 -74 80 -153 94 -175 14 -22 35 -57 46 -78 40 -73 107 -148 188 -209
96 -73 109 -87 142 -150 34 -64 52 -152 58 -278 3 -69 13 -128 27 -170 26 -79
572 -1172 657 -1316 17 -27 87 -162 155 -300 253 -502 668 -1321 828 -1629 45
-88 118 -228 161 -312 44 -84 93 -178 110 -210 18 -32 88 -168 157 -303 110
-217 262 -510 430 -830 30 -58 111 -214 179 -348 69 -134 143 -276 164 -315
22 -40 81 -153 130 -252 50 -99 95 -181 100 -183 5 -2 9 -9 9 -16 0 -14 60
-137 71 -146 3 -3 32 -54 64 -115 31 -60 101 -193 155 -295 112 -212 500 -970
500 -977 0 -9 313 -629 325 -643 7 -8 23 -35 35 -60 47 -93 170 -264 170 -236
0 4 7 0 16 -8 19 -20 83 -21 110 -1 12 8 24 12 26 9 3 -2 17 13 31 33 30 43
165 170 206 193 14 8 28 17 31 20 22 22 165 79 241 96 59 13 191 16 214 5 14
-6 37 -17 52 -23 15 -7 47 -33 71 -58 25 -25 49 -44 54 -43 4 2 8 -1 8 -5 0
-5 20 -30 44 -58 54 -59 126 -194 155 -287 26 -86 38 -161 51 -318 17 -199 20
-254 25 -449 4 -186 7 -250 25 -545 15 -249 19 -356 25 -550 3 -99 7 -218 10
-265 14 -246 17 -293 26 -390 6 -58 14 -136 20 -175 31 -234 32 -519 0 -590
-5 -11 -21 -49 -36 -85 -21 -49 -45 -82 -96 -132 -66 -64 -86 -79 -159 -113
-101 -47 -302 -65 -365 -31 -16 9 -38 16 -47 16 -21 0 -87 29 -110 49 -10 8
-18 11 -18 8 0 -9 -108 68 -151 108 -20 18 -40 31 -43 28 -3 -4 -6 0 -6 8 0 8
-16 32 -35 54 -19 22 -35 45 -35 52 0 6 -3 13 -7 15 -12 5 -54 67 -58 86 -2 9
-29 73 -60 141 -31 68 -58 131 -60 140 -3 18 -271 551 -359 716 -29 55 -66
125 -81 155 -15 30 -35 63 -43 73 -8 9 -12 17 -9 17 9 0 -160 330 -180 352 -8
9 -16 22 -17 30 -5 24 -29 68 -38 68 -5 0 -6 5 -3 10 3 5 1 10 -4 10 -6 0 -10
3 -9 8 4 14 -14 52 -24 52 -6 0 -9 3 -5 6 6 6 -60 141 -74 150 -5 3 -9 14 -9
25 0 10 -5 19 -11 19 -5 0 -8 4 -4 9 3 5 0 15 -7 23 -7 7 -14 20 -16 28 -2 8
-9 18 -15 22 -7 4 -8 8 -3 8 5 0 1 9 -9 20 -10 11 -14 20 -10 20 4 0 0 9 -10
20 -10 11 -15 20 -11 20 3 0 -4 17 -17 38 -13 20 -27 47 -31 60 -4 12 -12 22
-17 22 -5 0 -8 3 -7 8 1 4 -13 36 -31 72 -19 36 -123 241 -231 455 -109 215
-243 478 -299 585 -55 107 -101 200 -101 205 0 6 -9 21 -20 35 -11 14 -20 33
-20 42 0 9 -4 18 -8 20 -9 3 -112 201 -331 633 -73 143 -141 274 -151 290 -10
17 -19 35 -19 42 -1 12 -65 126 -86 153 -7 8 -15 27 -19 42 -3 15 -13 33 -21
41 -8 8 -11 17 -8 21 4 3 0 6 -7 6 -7 0 -11 3 -7 6 7 7 -71 165 -87 176 -6 4
-8 8 -4 8 4 0 -51 114 -122 253 -71 138 -191 374 -266 522 -75 149 -140 275
-144 280 -21 28 -160 305 -153 305 4 0 3 4 -3 8 -7 4 -51 86 -100 182 -48 96
-94 183 -102 193 -8 9 -11 17 -7 17 4 0 0 9 -10 20 -10 11 -15 20 -12 20 3 0
-17 44 -45 98 -28 53 -93 178 -143 277 -147 289 -328 641 -390 760 -32 61 -69
133 -82 160 -13 28 -31 64 -40 80 -8 17 -89 176 -179 355 -90 179 -202 397
-248 485 -46 88 -133 257 -193 375 -60 118 -163 319 -228 445 -344 665 -657
1285 -649 1285 3 0 -2 7 -10 16 -9 8 -14 20 -11 25 4 5 2 9 -3 9 -5 0 -85 150
-177 333 -92 182 -176 347 -187 365 -11 17 -16 32 -11 32 4 0 3 4 -3 8 -6 4
-60 102 -119 217 -59 116 -132 256 -162 313 -30 56 -52 102 -48 102 4 0 -1 7
-9 16 -9 8 -14 20 -11 25 4 5 3 9 -2 9 -4 0 -96 175 -203 388 -107 213 -198
389 -203 390 -4 2 -5 8 -1 13 3 5 0 9 -6 9 -6 0 -8 5 -5 10 3 6 2 10 -4 10
-10 0 -27 38 -23 53 1 4 -3 7 -9 7 -5 0 -8 4 -5 9 4 5 2 11 -2 13 -5 1 -120
226 -256 498 -137 272 -253 497 -257 498 -5 2 -7 8 -3 13 3 5 0 9 -6 9 -6 0
-8 5 -5 10 3 6 1 10 -6 10 -7 0 -10 3 -6 6 6 6 -21 61 -112 232 -22 39 -37 72
-34 72 3 0 -5 17 -17 38 -13 20 -68 125 -123 232 -55 107 -104 198 -109 201
-6 3 -9 9 -9 13 3 17 -1 25 -19 46 -11 12 -17 27 -14 31 3 5 0 9 -5 9 -6 0
-11 9 -11 19 0 11 -4 21 -8 23 -7 3 -694 1376 -712 1423 -34 86 -60 169 -55
173 2 3 0 11 -7 19 -7 9 -12 60 -12 141 -1 198 39 306 159 426 40 39 78 76 86
81 32 22 78 45 91 45 7 0 25 6 39 13 14 8 40 14 58 15 18 0 36 3 39 6 11 11
101 6 167 -9z m6422 -1694 c413 -48 602 -169 612 -391 4 -100 -55 -218 -139
-274 -81 -55 -225 -74 -355 -46 -317 68 -648 66 -918 -6 -197 -52 -304 -94
-495 -191 -107 -54 -294 -175 -372 -240 -84 -71 -222 -208 -273 -273 -29 -36
-57 -71 -64 -78 -53 -55 -233 -367 -233 -402 0 -6 -9 -30 -20 -52 -11 -23 -34
-96 -51 -162 -40 -155 -50 -368 -25 -511 42 -241 165 -452 349 -600 141 -113
350 -205 524 -230 21 -3 62 -10 92 -15 128 -23 461 -4 536 29 11 5 61 17 110
26 85 17 131 31 200 60 17 7 41 16 55 20 33 10 247 117 302 151 61 38 221 146
235 158 36 34 109 93 127 103 12 7 18 12 14 13 -13 0 269 266 316 298 64 42
115 57 196 56 114 0 223 -69 271 -172 18 -37 23 -66 23 -132 1 -73 -3 -94 -29
-150 -16 -36 -49 -91 -73 -123 -61 -80 -212 -231 -302 -302 -41 -32 -77 -62
-80 -65 -10 -11 -206 -148 -255 -178 -76 -47 -264 -148 -315 -170 -25 -11 -74
-33 -110 -49 -36 -17 -94 -40 -130 -53 -36 -12 -74 -26 -85 -32 -12 -5 -27
-10 -35 -11 -8 -2 -20 -6 -26 -9 -10 -7 -69 -23 -124 -34 -14 -2 -47 -11 -75
-18 -157 -43 -349 -61 -635 -60 -171 1 -243 6 -350 23 -116 19 -322 73 -385
102 -11 4 -45 18 -75 30 -128 49 -310 162 -441 276 -32 26 -70 58 -85 70 -40
30 -62 52 -112 110 -42 50 -132 190 -132 207 0 4 -17 47 -39 95 -69 154 -119
329 -146 510 -16 108 -8 356 15 476 63 329 156 556 354 870 61 96 64 101 173
240 48 61 152 176 232 256 434 434 929 704 1506 820 82 17 188 33 235 36 47 3
86 7 88 8 7 6 337 -5 419 -14z m6864 -139 c114 -40 205 -115 275 -228 84 -135
115 -258 115 -451 -1 -227 -41 -401 -157 -681 -71 -172 -80 -245 -34 -270 40
-21 145 -11 210 21 62 30 214 125 244 152 6 6 36 30 66 53 91 69 398 388 460
477 8 12 47 64 87 116 75 98 104 135 243 314 205 264 359 379 599 448 114 32
287 30 397 -6 173 -57 324 -199 368 -347 57 -193 -48 -360 -226 -360 -68 0
-121 19 -202 72 -109 72 -138 80 -216 63 -115 -25 -220 -122 -388 -360 -118
-167 -121 -171 -222 -298 -188 -238 -403 -456 -664 -672 -68 -56 -106 -112
-106 -154 0 -36 49 -141 102 -219 51 -75 135 -261 189 -422 83 -247 140 -344
283 -477 85 -79 169 -125 243 -131 72 -6 90 0 167 59 37 28 92 62 123 76 50
23 64 25 140 20 81 -5 87 -7 141 -49 79 -60 107 -118 107 -219 0 -67 -4 -83
-38 -151 -69 -140 -230 -263 -404 -309 -340 -90 -713 80 -1038 472 -37 45
-132 183 -173 254 -45 77 -79 162 -112 275 -45 157 -64 207 -102 279 -95 178
-198 277 -313 304 -193 45 -282 54 -324 33 -74 -39 -135 -185 -175 -421 -28
-163 -28 -265 -1 -320 18 -36 24 -40 61 -43 24 -2 67 6 100 18 33 11 91 23
131 27 60 5 80 2 126 -16 103 -42 160 -127 158 -238 -2 -114 -56 -209 -206
-358 -177 -178 -351 -254 -531 -234 -220 24 -376 199 -430 484 -18 98 -24 379
-11 515 40 398 173 901 302 1145 126 240 199 374 233 430 52 85 52 85 103 177
117 209 151 421 78 489 -24 23 -34 25 -66 19 -55 -10 -82 -26 -182 -113 -131
-113 -223 -146 -328 -116 -66 18 -144 96 -162 161 -36 129 16 261 162 415 169
176 323 272 497 309 86 18 228 11 301 -14z"/>
<path d="M23777 21423 c-28 -19 -72 -56 -97 -81 -92 -95 -157 -145 -255 -192
-55 -27 -118 -52 -140 -56 -22 -4 -64 -15 -92 -25 -29 -10 -53 -15 -53 -12 0
3 -6 1 -12 -5 -7 -6 -31 -13 -52 -18 -21 -4 -46 -13 -55 -20 -70 -56 -97 -82
-100 -94 -8 -29 -2 -55 16 -67 10 -8 25 -19 34 -27 17 -14 126 -32 255 -42
282 -20 1286 -26 1424 -7 100 13 186 56 194 97 4 17 1 35 -6 44 -10 13 -10 14
0 8 17 -10 15 -3 -10 41 -67 119 -213 216 -393 260 -33 8 -64 18 -70 23 -5 4
-23 10 -40 13 -59 10 -293 115 -390 175 -11 7 -21 9 -73 16 -25 4 -44 -3 -85
-31z"/>
<path d="M23365 18299 c-181 -4 -356 -11 -387 -17 -74 -13 -168 -56 -168 -76
0 -9 -4 -16 -10 -16 -15 0 -12 -43 6 -68 8 -12 12 -22 7 -22 -4 -1 19 -25 52
-56 52 -47 141 -100 210 -125 11 -4 36 -14 55 -22 53 -24 227 -67 267 -67 19
0 42 -4 51 -9 19 -10 159 -20 337 -24 117 -3 346 19 430 42 22 5 53 12 69 15
55 10 162 49 263 97 107 51 213 136 213 171 0 10 5 18 10 18 6 0 10 14 10 31
0 16 -4 28 -9 25 -5 -3 -8 2 -7 11 1 22 -90 68 -154 78 -151 23 -531 28 -1245
14z"/>
<path d="M37462 31110 c0 -19 2 -27 5 -17 2 9 2 25 0 35 -3 9 -5 1 -5 -18z"/>
<path d="M32527 21485 c-24 -50 -20 -58 4 -12 11 22 19 41 17 43 -3 2 -12 -12
-21 -31z"/>
<path d="M15897 18875 c9 -19 18 -33 21 -31 4 5 -26 66 -33 66 -3 0 3 -16 12
-35z"/>
</g>
</svg>
